<?xml version="1.0" encoding="utf-8"?>
<svg version="1.1" xmlns:xlink="http://www.w3.org/1999/xlink" width="28px" height="27px" xmlns="http://www.w3.org/2000/svg">
  <g transform="matrix(1 0 0 1 -177 -1353 )">
    <path d="M 27 14.1428571484375  C 27.0714285546875 6.714285703125  21.0714285546875 0.714285703125  13.714285703125 0.714285703125  C 6.3571428515625 0.714285703125  0.3571428515625 6.714285703125  0.3571428515625 14.0714285546875  C 0.3571428515625 19.5714285546875  3.6428571484375 24.42857140625  8.785714296875 26.5  C 8.8571428515625 26.5  8.9285714453125 26.5714285546875  9.0714285546875 26.5714285546875  C 9.3571428515625 26.5714285546875  9.642857109375 26.42857140625  9.714285703125 26.1428571484375  C 9.8571428515625 25.785714296875  9.714285703125 25.3571428515625  9.285714296875 25.214285703125  C 4.7142857421875 23.42857140625  1.7142857421875 19.0714285546875  1.714285703125 14.1428571484375  C 1.714285703125 7.57142859375001  7.0714285546875 2.21428570312501  13.6428571484375 2.21428570312501  C 20.2142857421875 2.21428570312501  25.5714285546875 7.5714285546875  25.5714285546875 14.1428571484375  C 25.5714285546875 17.9285714453125  23.8571428515625 21.4285714453125  20.785714296875 23.714285703125  C 20.57142859375 23.92857140625  20.285714296875 24.0714285546875  20 24.214285703125  C 19.6428571484375 24.42857140625  19.5714285546875 24.8571428515625  19.785714296875 25.214285703125  C 20 25.5714285546875  20.4285714453125 25.6428571484375  20.785714296875 25.4285714453125  C 21.07142859375 25.2142857421875  21.3571428515625 25.07142859375  21.6428571484375 24.8571428515625  C 25.07142859375 22.285714296875  27 18.42857140625  27 14.1428571484375  Z " fill-rule="nonzero" fill="#1a1a1a" stroke="none" transform="matrix(1 0 0 1 177 1353 )" />
  </g>
</svg>