<?xml version="1.0" encoding="utf-8"?>
<svg version="1.1" xmlns:xlink="http://www.w3.org/1999/xlink" width="18px" height="13px" xmlns="http://www.w3.org/2000/svg">
  <g transform="matrix(1 0 0 1 -279 -1361 )">
    <path d="M 6.49999999999999 6.28571429687501  L 10.0714285546875 6.285714296875  C 10.5 6.285714296875  10.7857142578125 6  10.785714296875 5.5714285546875  C 10.7857143359375 5.142857109375  10.5 4.8571428515625  10.0714285546875 4.8571428515625  L 7.214285703125 4.8571428515625  L 10.214285703125 1.8571428515625  C 10.5 1.5714285546875  10.5 1.1428571484375  10.214285703125 0.857142851562502  C 9.92857140624999 0.5714285546875  9.5 0.571428554687502  9.21428570312499 0.857142851562502  L 5.78571429687499 4.285714296875  L 2.35714285156249 0.857142851562502  C 2.07142855468749 0.571428554687502  1.64285714843749 0.571428554687502  1.35714285156249 0.857142851562502  C 1.07142855468749 1.1428571484375  1.07142855468749 1.5714285546875  1.35714285156249 1.8571428515625  L 4.35714285156249 4.8571428515625  L 1.49999999999999 4.8571428515625  C 1.07142855468749 4.8571428515625  0.785714296874994 5.1428571484375  0.785714296874994 5.5714285546875  C 0.785714296874994 5.9999999609375  1.07142859374999 6.2857142578125  1.49999999999999 6.285714296875  L 5.07142855468749 6.285714296875  L 5.07142855468749 7.785714296875  L 1.49999999999999 7.785714296875  C 1.07142855468749 7.785714296875  0.785714296874994 8.07142859375  0.785714296874994 8.5  C 0.785714296874994 8.92857140625  1.07142859374999 9.214285703125  1.49999999999999 9.214285703125  L 5.07142855468749 9.214285703125  L 5.07142855468749 12.1428571484375  C 5.07142855468749 12.57142859375  5.35714285156249 12.8571428515625  5.78571429687499 12.8571428515625  C 6.21428574218749 12.8571428515625  6.49999999999999 12.5714285546875  6.49999999999999 12.1428571484375  L 6.49999999999999 9.214285703125  L 10.0714285546875 9.214285703125  C 10.5 9.214285703125  10.7857142578125 8.92857140625  10.785714296875 8.5  C 10.7857143359375 8.07142859375001  10.5 7.78571429687501  10.0714285546875 7.78571429687501  L 6.49999999999999 7.78571429687501  L 6.49999999999999 6.28571429687501  Z M 17.1428571484375 12  C 17.1428571484375 11.8571428515625  17.07142859375 11.6428571484375  16.9285714453125 11.5  C 16.6428571484375 11.214285703125  16.2142857421875 11.214285703125  15.9285714453125 11.5  C 15.785714296875 11.6428571484375  15.7142857421875 11.785714296875  15.714285703125 12  C 15.714285703125 12.214285703125  15.7857142578125 12.3571428515625  15.9285714453125 12.5  C 16.07142859375 12.6428571484375  16.2142857421875 12.714285703125  16.4285714453125 12.714285703125  C 16.6428571484375 12.714285703125  16.785714296875 12.6428571484375  16.9285714453125 12.5  C 17.07142859375 12.3571428515625  17.1428571484375 12.214285703125  17.1428571484375 12  Z " fill-rule="nonzero" fill="#231815" stroke="none" transform="matrix(1 0 0 1 279 1361 )" />
  </g>
</svg>