<?xml version="1.0" encoding="utf-8"?>
<svg version="1.1" width="20px" height="20px" xmlns:xlink="http://www.w3.org/1999/xlink" xmlns="http://www.w3.org/2000/svg">
  <g transform="translate(-342 -12 )">
    <path d="M 19.0000000488281 10.7405078125001  L 19.0000000488281 16.4975  C 19.0005503468961 17.8788442944857  17.8813442579768 18.9991696441973  16.5000001708984 19  L 3.50000080566402 19  C 2.11928899850461 19  1.00000092773433 17.880711874577  1 16.5  L 1 3.50000000000009  C 1.00000092773433 2.1184960937501  2.1169930606937 1.00000000000011  3.49750080578609 1.00000000000011  L 7.44900451909157 1.00000000000011  C 7.72514686998675 1.00000000000011  7.9490044841408 0.776142374915507  7.9490044841408 0.500000000000111  C 7.9490044841408 0.223857625084716  7.72514686998675 0  7.44900450855486 0  L 3.49750080578609 0  C 1.56588409407465 0  0 1.56588408746679  0 3.49749999999998  C 0 3.49833333341322  0 3.49916666679975  0 3.50000000000009  L 0 16.5  C 0 18.4329966244078  1.56700427564084 20  3.50000080566402 20  L 16.5000001708984 20  C 18.4325000765381 20  20 18.4319921875  20 16.4975  L 20 10.7405078125001  C 20 10.4643654375847  19.7761423858459 10.2405078125001  19.5000000244141 10.2405078125001  C 19.2238576629822 10.2405078125001  19.0000000488281 10.4643654375847  19.0000000488281 10.7405078125001  Z " fill-rule="nonzero" fill="#000000" stroke="none" transform="matrix(1 0 0 1 342 12 )" />
  </g>
</svg>