<?xml version="1.0" encoding="utf-8"?>
<svg version="1.1" width="30px" height="29px" xmlns:xlink="http://www.w3.org/1999/xlink" xmlns="http://www.w3.org/2000/svg">
  <g transform="translate(-113 -249 )">
    <path d="M 0 17.1741729463415  L 6.4164612 17.1741729463415  L 6.4164612 15.0489756097561  L 8.5552816097561 15.0489756097561  L 8.5552816097561 17.1877960195122  L 12 17.1877960195122  L 12 29  L 0 29  L 0 17.1741729463415  Z M 2.1388204097561 19.3129933560976  L 2.1388204097561 26.7920532097561  L 9.63150333658537 26.7920532097561  L 9.63150333658537 19.3129933560976  L 2.1388204097561 19.3129933560976  Z M 13.9091441268293 0.077232829268292  L 13.9091441268293 3.29227493658537  L 16.0479645365854 3.29227493658537  L 16.0479645365854 0.077232829268292  L 13.9091441268293 0.077232829268292  Z M 13.9091441268293 5.43109534634146  L 13.9091441268293 7.56991575609756  L 16.0479645365854 7.56991575609756  L 16.0479645365854 5.43109534634146  L 13.9091441268293 5.43109534634146  Z M 20.3256053268293 17.1877960195122  L 20.3256053268293 12.9101552  L 16.0479645365854 12.9101552  L 16.0479645365854 9.69511309268293  L 13.9091441268293 9.69511309268293  L 13.9091441268293 12.9101552  L 8.5552816097561 12.9101552  L 8.5552816097561 15.0489756097561  L 18.1867849170732 15.0489756097561  L 18.1867849170732 17.1877960195122  L 20.3256053268293 17.1877960195122  Z M 20.3256053268293 17.1877960195122  L 20.3256053268293 19.3129933560976  L 22.4780487804878 19.3129933560976  L 22.4780487804878 17.1877960195122  L 20.3256053268293 17.1877960195122  Z M 13.9091441268293 17.1877960195122  L 13.9091441268293 20.3892150829268  L 16.0479645365854 20.3892150829268  L 16.0479645365854 17.1877960195122  L 13.9091441268293 17.1877960195122  Z M 13.9091441268293 22.5280354634146  L 13.9091441268293 26.7920532097561  L 16.0479645365854 26.7920532097561  L 16.0479645365854 22.5280354634146  L 13.9091441268293 22.5280354634146  Z M 18.1867849170732 20.3892150829268  L 18.1867849170732 26.7920532097561  L 20.3256053268293 26.7920532097561  L 20.3256053268293 20.3892150829268  L 18.1867849170732 20.3892150829268  Z M 24.6168691902439 17.1877960195122  L 24.6168691902439 19.3129933560976  L 29.9571086341463 19.3129933560976  L 29.9571086341463 17.1877960195122  L 24.6168691902439 17.1877960195122  Z M 27.8182882536585 12.9101552  L 27.8182882536585 15.0489756097561  L 29.9571086341463 15.0489756097561  L 29.9571086341463 12.9101552  L 27.8182882536585 12.9101552  Z M 22.4780487804878 12.9101552  L 22.4780487804878 15.0489756097561  L 26.7556895707317 15.0489756097561  L 26.7556895707317 12.9101552  L 22.4780487804878 12.9101552  Z M 22.4780487804878 20.3892150829268  L 22.4780487804878 22.5280354634146  L 24.6168691902439 22.5280354634146  L 24.6168691902439 20.3892150829268  L 22.4780487804878 20.3892150829268  Z M 27.8182882536585 20.3892150829268  L 27.8182882536585 22.5280354634146  L 26.7556895707317 22.5280354634146  L 26.7556895707317 24.6668558731707  L 28.8945099804878 24.6668558731707  L 28.8945099804878 22.5280354634146  L 29.9571086341463 22.5280354634146  L 29.9571086341463 20.3892150829268  L 27.8182882536585 20.3892150829268  Z M 22.4780487804878 24.6668558731707  L 22.4780487804878 26.7920532097561  L 24.6168691902439 26.7920532097561  L 24.6168691902439 24.6668558731707  L 22.4780487804878 24.6668558731707  Z M 24.6168691902439 26.7920532097561  L 24.6168691902439 28.9308736195122  L 29.9571086341463 28.9308736195122  L 29.9571086341463 26.7920532097561  L 24.6168691902439 26.7920532097561  Z " fill-rule="nonzero" fill="#666666" stroke="none" transform="matrix(1 0 0 1 113 249 )" />
  </g>
</svg>