<?xml version="1.0" encoding="utf-8"?>
<svg version="1.1" width="80px" height="60px" xmlns:xlink="http://www.w3.org/1999/xlink" xmlns="http://www.w3.org/2000/svg">
  <defs>
    <linearGradient gradientUnits="userSpaceOnUse" x1="40" y1="0" x2="40" y2="60" id="LinearGradient735">
      <stop id="Stop736" stop-color="#ffffff" offset="0" />
      <stop id="Stop737" stop-color="#f2f2f2" offset="0" />
      <stop id="Stop738" stop-color="#e4e4e4" offset="1" />
      <stop id="Stop739" stop-color="#ffffff" offset="1" />
    </linearGradient>
    <mask fill="white" id="clip740">
      <path d="M 0 0  L 62.4297693920336 0  L 79.3775100401606 20.5662650602409  L 79.3775100401606 40  L 62.4297693920336 60  L 0 60  L 0 0  Z " fill-rule="evenodd" />
    </mask>
  </defs>
  <g transform="translate(-423 -271 )">
    <path d="M 0 0  L 62.4297693920336 0  L 79.3775100401606 20.5662650602409  L 79.3775100401606 40  L 62.4297693920336 60  L 0 60  L 0 0  Z " fill-rule="nonzero" fill="url(#LinearGradient735)" stroke="none" transform="matrix(1 0 0 1 423 271 )" />
    <path d="M 0 0  L 62.4297693920336 0  L 79.3775100401606 20.5662650602409  L 79.3775100401606 40  L 62.4297693920336 60  L 0 60  L 0 0  Z " stroke-width="2" stroke="#797979" fill="none" transform="matrix(1 0 0 1 423 271 )" mask="url(#clip740)" />
  </g>
</svg>