<?xml version="1.0" standalone="no"?><!DOCTYPE svg PUBLIC "-//W3C//DTD SVG 1.1//EN" "http://www.w3.org/Graphics/SVG/1.1/DTD/svg11.dtd"><svg t="1544065940600" class="icon" style="" viewBox="0 0 1024 1024" version="1.1" xmlns="http://www.w3.org/2000/svg" p-id="10038" xmlns:xlink="http://www.w3.org/1999/xlink" width="200" height="200"><defs><style type="text/css"></style></defs><path d="M941.677714 157.074286A276.662857 276.662857 0 0 0 742.875429 73.142857a276.662857 276.662857 0 0 0-198.838858 83.931429 286.537143 286.537143 0 0 0-59.904 90.258285h-364.617142C53.686857 247.332571 0 301.897143 0 369.152V755.931429C0 823.003429 53.540571 877.714286 119.515429 877.714286h629.869714c65.974857 0 119.661714-54.710857 119.661714-121.819429V615.862857a281.965714 281.965714 0 0 0 72.630857-53.504A287.561143 287.561143 0 0 0 1024 359.716571c0-76.544-29.257143-148.516571-82.322286-202.642285zM55.113143 369.298286c0-36.132571 28.964571-65.645714 64.402286-65.645715h347.538285a295.021714 295.021714 0 0 0 2.340572 122.733715H55.113143v-57.051429z m758.637714 386.56c0 36.169143-28.928 65.645714-64.365714 65.645714H119.515429c-35.474286 0-64.365714-29.476571-64.365715-65.609143v-221.110857h465.188572c7.314286 9.691429 15.250286 18.907429 23.698285 27.574857a276.662857 276.662857 0 0 0 198.838858 83.931429c24.246857 0 48.018286-3.145143 70.875428-9.179429v118.784z m17.188572-183.990857l-0.621715 0.256a221.001143 221.001143 0 0 1-87.442285 17.993142c-124.598857 0-226.011429-103.387429-226.011429-230.4 0-126.976 101.412571-230.4 226.011429-230.4 124.562286 0 226.011429 103.424 226.011428 230.4 0 95.158857-56.978286 177.042286-137.947428 212.114286z" fill="#151501" p-id="10039"></path><path d="M820.772571 393.947429h-68.973714V356.608h62.098286c11.264 0 20.370286-10.276571 20.370286-22.674286 0-12.544-9.106286-22.674286-20.370286-22.674285h-35.913143l44.288-53.76a24.722286 24.722286 0 0 0-1.243429-32.109715 19.126857 19.126857 0 0 0-28.891428 1.353143l-60.562286 73.508572-60.598857-73.508572a19.163429 19.163429 0 0 0-28.891429-1.389714 24.758857 24.758857 0 0 0-1.243428 32.182857l44.288 53.76h-36.169143c-11.264 0-20.370286 10.093714-20.370286 22.637714 0 12.544 9.106286 22.674286 20.370286 22.674286h62.098286v37.339429h-68.973715c-11.300571 0-20.370286 10.093714-20.370285 22.674285 0 12.544 9.069714 22.674286 20.370285 22.674286h68.973715v50.029714c0 12.580571 9.069714 22.674286 20.370285 22.674286 11.300571 0 20.370286-10.24 20.370286-22.820571v-49.92h68.973714c11.300571 0 20.370286-10.093714 20.370286-22.674286 0-12.544-9.069714-22.637714-20.370286-22.637714z" fill="#151501" p-id="10040"></path></svg>