<?xml version="1.0" standalone="no"?><!DOCTYPE svg PUBLIC "-//W3C//DTD SVG 1.1//EN" "http://www.w3.org/Graphics/SVG/1.1/DTD/svg11.dtd"><svg t="1544065883317" class="icon" style="" viewBox="0 0 1024 1024" version="1.1" xmlns="http://www.w3.org/2000/svg" p-id="7685" xmlns:xlink="http://www.w3.org/1999/xlink" width="200" height="200"><defs><style type="text/css"></style></defs><path d="M213.333333 277.333333a21.333333 21.333333 0 0 0-21.333333 21.333334v469.333333a21.333333 21.333333 0 0 0 21.333333 21.333333h597.333334a21.333333 21.333333 0 0 0 21.333333-21.333333V298.666667a21.333333 21.333333 0 0 0-21.333333-21.333334H213.333333zM213.333333 213.333333h597.333334a85.333333 85.333333 0 0 1 85.333333 85.333334v469.333333a85.333333 85.333333 0 0 1-85.333333 85.333333H213.333333a85.333333 85.333333 0 0 1-85.333333-85.333333V298.666667a85.333333 85.333333 0 0 1 85.333333-85.333334z" fill="#333333" p-id="7686"></path><path d="M347.605333 603.562667l61.824-61.824a64 64 0 1 1 93.397334-18.005334l51.541333 77.354667a63.573333 63.573333 0 0 1 12.074667-3.029333l79.786666-79.786667a64 64 0 1 1 30.165334 30.165333l-61.824 61.824a64 64 0 1 1-93.397334 18.005334l-51.541333-77.354667a63.573333 63.573333 0 0 1-12.074667 3.029333l-79.786666 79.786667a64 64 0 1 1-30.165334-30.165333zM597.333333 213.333333a32 32 0 1 1 64 0v96a32 32 0 1 1-64 0V213.333333zM341.333333 213.333333a32 32 0 0 1 64 0v96a32 32 0 0 1-64 0V213.333333z" fill="#333333" p-id="7687"></path></svg>