<?xml version="1.0" standalone="no"?><!DOCTYPE svg PUBLIC "-//W3C//DTD SVG 1.1//EN" "http://www.w3.org/Graphics/SVG/1.1/DTD/svg11.dtd"><svg t="1544066167885" class="icon" style="" viewBox="0 0 1024 1024" version="1.1" xmlns="http://www.w3.org/2000/svg" p-id="12140" xmlns:xlink="http://www.w3.org/1999/xlink" width="200" height="200"><defs><style type="text/css"></style></defs><path d="M603.50976 965.5552h-450.56c-71.83872 0-100.1728-65.4592-105.11872-100.0704l-0.384-2.69824V131.47648c0-70.30272 62.19264-95.44192 95.08352-98.90816l4.02944-0.21504 617.46176 0.00512c57.69728 1.10592 120.59136 32.77824 122.33728 99.70176l0.01536 1.00352v468.35712h-76.8v-467.712c-1.024-21.34016-43.48416-24.35072-47.00672-24.55552H149.1456c-8.28928 1.34144-24.89856 6.11328-24.89856 22.31808v725.1712c1.62304 7.68512 8.3968 32.10752 28.70272 32.10752h450.56v76.80512z" fill="#151501" p-id="12141"></path><path d="M248.82176 275.21536h450.56512v76.8H248.82176z" fill="#151501" p-id="12142"></path><path d="M248.82176 479.72352h361.08288v76.8H248.82176z" fill="#151501" p-id="12143"></path><path d="M248.82176 665.0624h201.3184v76.8h-201.3184z" fill="#151501" p-id="12144"></path><path d="M781.57312 1016.05888c-64.74752 0-129.12128-18.816-191.33952-55.92576l-18.72896-11.17184v-326.18496l18.42688-11.21792c3.56352-2.176 88.57088-53.18656 197.49376-53.18656 65.46944 0 125.81888 18.19648 179.37408 54.08256l17.024 11.40736v321.99168l-14.71488 11.53024c-3.05152 2.39104-76.16 58.6752-187.53536 58.6752z m-133.26848-111.41632c44.12416 22.98368 88.86272 34.62144 133.26848 34.62144 58.62912 0 103.56224-20.51072 125.45024-32.9728v-240.4864c-36.33664-20.33664-76.47744-30.62784-119.59808-30.62784-60.8256 0-112.7936 20.02944-139.12064 32.41472v237.05088z" fill="#151501" p-id="12145"></path><path d="M793.93792 775.9104c-103.81312 0-194.8416-43.01312-200.71424-45.8496l33.36192-69.1712-16.68096 34.5856 16.62464-34.61632c1.82784 0.88064 183.98208 86.3744 295.07584-1.49504l47.6416 60.24192c-53.80096 42.5472-116.60288 56.30464-175.3088 56.30464z" fill="#151501" p-id="12146"></path><path d="M793.9328 895.81568c-103.81824 0-194.84672-43.01824-200.72448-45.85472l33.37216-69.1712-16.68608 34.5856 16.62464-34.61632c1.83296 0.88064 183.9872 86.38976 295.08608-1.49504l47.6416 60.24192c-53.80608 42.55232-116.608 56.30976-175.31392 56.30976z" fill="#151501" p-id="12147"></path></svg>