<?xml version="1.0" standalone="no"?><!DOCTYPE svg PUBLIC "-//W3C//DTD SVG 1.1//EN" "http://www.w3.org/Graphics/SVG/1.1/DTD/svg11.dtd"><svg t="1540524651563" class="icon" style="" viewBox="0 0 1024 1024" version="1.1" xmlns="http://www.w3.org/2000/svg" p-id="3092" xmlns:xlink="http://www.w3.org/1999/xlink" width="200" height="200"><defs><style type="text/css"></style></defs><path d="M992 1022c-7.7 0-15.4-2.9-21.2-8.8l-960-960C-0.9 41.5-0.9 22.5 10.8 10.8s30.7-11.7 42.4 0l960 960c11.7 11.7 11.7 30.7 0 42.4-5.8 5.9-13.5 8.8-21.2 8.8z" fill="#999999" p-id="3093"></path><path d="M32 1022c-7.7 0-15.4-2.9-21.2-8.8-11.7-11.7-11.7-30.7 0-42.4l960-960c11.7-11.7 30.7-11.7 42.4 0s11.7 30.7 0 42.4l-960 960c-5.8 5.9-13.5 8.8-21.2 8.8z" fill="#999999" p-id="3094"></path></svg>