<?xml version="1.0" encoding="utf-8"?>
<svg version="1.1" xmlns:xlink="http://www.w3.org/1999/xlink" width="38px" height="10px" xmlns="http://www.w3.org/2000/svg">
  <g transform="matrix(1 0 0 1 -314 -1363 )">
    <path d="M 4.8125 0.5  L 23.5625 0.5  C 24.4254449216106 0.5  25.125 1.19955507838939  25.125 2.0625  C 25.125 2.92544492161061  24.4254449216106 3.625  23.5625 3.625  L 4.8125 3.625  C 3.94955507838939 3.625  3.25 2.92544492161061  3.25 2.0625  C 3.25 1.19955507838939  3.94955507838939 0.5  4.8125 0.5  Z M 32.9375 3.625  C 32.0745550783894 3.625  31.375 2.92544492161061  31.375 2.0625  C 31.375 1.19955507838939  32.0745550783894 0.5  32.9375 0.5  C 33.8004449216106 0.5  34.5 1.19955507838939  34.5 2.0625  C 34.5 2.92544492161061  33.8004449216106 3.625  32.9375 3.625  Z M 0.125 9.875  L 0.125 6.75  L 37.625 6.75  L 37.625 9.875  L 0.125 9.875  Z " fill-rule="nonzero" fill="#5a5a5a" stroke="none" transform="matrix(1 0 0 1 314 1363 )" />
  </g>
</svg>