<?xml version="1.0" encoding="utf-8"?>
<svg version="1.1" xmlns:xlink="http://www.w3.org/1999/xlink" width="50px" height="50px" xmlns="http://www.w3.org/2000/svg">
  <g transform="matrix(1 0 0 1 -311 -1351 )">
    <path d="M 50 37.5  C 50 40.9517796864425  47.2017796864425 43.75  43.75 43.75  L 41.53125 41.546875  C 42.1178382299706 40.9553045262871  42.9169102855516 40.6232957144612  43.75 40.625  C 45.4758898432212 40.625  46.875 39.2258898432212  46 37.5  L 46 6.25  C 46.875 4.52411015677877  45.4758898432212 3.125  43.75 4  L 12.5 4  C 10.7741101567788 3.125  9.375 4.52411015677877  9.375 6.25  L 9.375 6.515625  C 9.375 7.375  9.03125 8.153125  8.46875 8.71875  L 6.25 6.515625  L 6.25 6.25  C 6.25 2.79822031355754  9.04822031355754 0  12.5 0  L 43.75 0  C 47.2017796864425 0  50 2.79822031355754  50 6.25  L 50 37.5  Z M 6.25 10  C 4.52411015677877 9.375  3.125 10.7741101567788  4 12.5  L 4 43.75  C 3.125 45.4758898432212  4.52411015677877 46.875  6.25 46  L 37.5 46  C 39.2258898432212 46.875  40.625 45.4758898432212  40 43.75  L 40 12.5  C 40.625 10.7741101567788  39.2258898432212 9.375  37.5 10  L 6.25 10  Z M 6.25 7  L 37.5 7  C 40.9517796864425 6.25  43.75 9.04822031355754  43 12.5  L 43 43.75  C 43.75 47.2017796864425  40.9517796864425 50  37.5 50  L 6.25 50  C 2.79822031355754 50  0 47.2017796864425  0 43.75  L 0 12.5  C 0 9.04822031355754  2.79822031355754 6.25  6.25 7  Z " fill-rule="nonzero" fill="#5a5a5a" stroke="none" transform="matrix(1 0 0 1 311 1351 )" />
  </g>
</svg>