<?xml version="1.0" encoding="utf-8"?>
<svg version="1.1" xmlns:xlink="http://www.w3.org/1999/xlink" width="130px" height="35px" xmlns="http://www.w3.org/2000/svg">
  <g transform="matrix(1 0 0 1 -124 -379 )">
    <path d="M 125 389  A 9 9 0 0 1 134 380 L 244 380  A 9 9 0 0 1 253 389 L 253 404  A 9 9 0 0 1 244 413 L 134 413  A 9 9 0 0 1 125 404 L 125 389  Z " fill-rule="nonzero" fill="#ffffff" stroke="none" />
    <path d="M 124.5 389  A 9.5 9.5 0 0 1 134 379.5 L 244 379.5  A 9.5 9.5 0 0 1 253.5 389 L 253.5 404  A 9.5 9.5 0 0 1 244 413.5 L 134 413.5  A 9.5 9.5 0 0 1 124.5 404 L 124.5 389  Z " stroke-width="1" stroke-dasharray="1,1" stroke="#e4e4e4" fill="none" stroke-dashoffset="0.5" />
  </g>
</svg>