<?xml version="1.0" encoding="utf-8"?>
<svg version="1.1" xmlns:xlink="http://www.w3.org/1999/xlink" width="270px" height="35px" xmlns="http://www.w3.org/2000/svg">
  <g transform="matrix(1 0 0 1 -124 -300 )">
    <path d="M 125 310  A 9 9 0 0 1 134 301 L 384 301  A 9 9 0 0 1 393 310 L 393 325  A 9 9 0 0 1 384 334 L 134 334  A 9 9 0 0 1 125 325 L 125 310  Z " fill-rule="nonzero" fill="#ffffff" stroke="none" />
    <path d="M 124.5 310  A 9.5 9.5 0 0 1 134 300.5 L 384 300.5  A 9.5 9.5 0 0 1 393.5 310 L 393.5 325  A 9.5 9.5 0 0 1 384 334.5 L 134 334.5  A 9.5 9.5 0 0 1 124.5 325 L 124.5 310  Z " stroke-width="1" stroke-dasharray="1,1" stroke="#e4e4e4" fill="none" stroke-dashoffset="0.5" />
  </g>
</svg>