<?xml version="1.0" encoding="utf-8"?>
<svg version="1.1" xmlns:xlink="http://www.w3.org/1999/xlink" width="80px" height="35px" xmlns="http://www.w3.org/2000/svg">
  <g transform="matrix(1 0 0 1 -124 -63 )">
    <path d="M 125 73  A 9 9 0 0 1 134 64 L 194 64  A 9 9 0 0 1 203 73 L 203 88  A 9 9 0 0 1 194 97 L 134 97  A 9 9 0 0 1 125 88 L 125 73  Z " fill-rule="nonzero" fill="#ffffff" stroke="none" />
    <path d="M 124.5 73  A 9.5 9.5 0 0 1 134 63.5 L 194 63.5  A 9.5 9.5 0 0 1 203.5 73 L 203.5 88  A 9.5 9.5 0 0 1 194 97.5 L 134 97.5  A 9.5 9.5 0 0 1 124.5 88 L 124.5 73  Z " stroke-width="1" stroke-dasharray="1,1" stroke="#e4e4e4" fill="none" stroke-dashoffset="0.5" />
  </g>
</svg>