<?xml version="1.0" encoding="utf-8"?>
<svg version="1.1" width="26px" height="28px" xmlns:xlink="http://www.w3.org/1999/xlink" xmlns="http://www.w3.org/2000/svg">
  <g transform="translate(-819 -1807 )">
    <path d="M 12.785714296875 19.1428571484375  C 18 19.214285703125  22.285714296875 14.9285714453125  22.285714296875 9.714285703125  C 22.285714296875 4.5  18 0.214285703125  12.785714296875 0.214285703125  C 7.57142859375 0.214285703125  3.214285703125 4.4285714453125  3.214285703125 9.714285703125  C 3.214285703125 12.42857140625  4.3571428515625 15  6.3571428515625 16.785714296875  C 6.6428571484375 17.07142859375  7.0714285546875 17  7.3571428515625 16.714285703125  C 7.6428571484375 16.42857140625  7.5714285546875 16  7.285714296875 15.714285703125  C 5.57142859375 14.214285703125  4.57142859375 12  4.5714285546875 9.714285703125  C 4.5714285546875 5.2857142578125  8.214285703125 1.6428571484375  12.6428571484375 1.6428571484375  C 17.214285703125 1.6428571484375  20.8571428515625 5.214285703125  20.8571428515625 9.714285703125  C 20.8571428515625 14.1428571484375  17.214285703125 17.7857142578125  12.785714296875 17.785714296875  C 7.5 17.785714296875  2.6428571484375 20.8571428515625  0.357142851562504 25.6428571484375  C 0.214285703125004 26  0.357142851562504 26.4285714453125  0.714285703125004 26.5714285546875  C 0.785714257812504 26.642857109375  0.928571406250003 26.642857109375  1 26.6428571484375  C 1.285714296875 26.6428571484375  1.5 26.5  1.6428571484375 26.214285703125  C 3.6428571484375 21.92857140625  8 19.1428571484375  12.785714296875 19.1428571484375  Z M 25.214285703125 26.4285714453125  C 25.214285703125 26.285714296875  25.214285703125 26.1428571484375  25.1428571484375 26.0714285546875  C 25 25.714285703125  24.57142859375 25.5714285546875  24.214285703125 25.714285703125  C 24 25.8571428515625  23.8571428515625 26.0714285546875  23.785714296875 26.285714296875  C 23.785714296875 26.4285714453125  23.785714296875 26.57142859375  23.8571428515625 26.6428571484375  C 24 26.9285714453125  24.214285703125 27.07142859375  24.5 27.0714285546875  C 24.5714285546875 27.0714285546875  24.714285703125 27.0714285546875  24.785714296875 27  C 25 26.8571428515625  25.2142857421875 26.6428571484375  25.214285703125 26.4285714453125  Z M 24 24.8571428515625  C 24.214285703125 24.6428571484375  24.3571428515625 24.214285703125  24.1428571484375 23.8571428515625  C 23 22.1428571484375  21.4285714453125 20.6428571484375  19.6428571484375 19.6428571484375  C 19.285714296875 19.4285714453125  18.8571428515625 19.57142859375  18.6428571484375 19.9285714453125  C 18.4285714453125 20.285714296875  18.57142859375 20.7142857421875  18.9285714453125 20.9285714453125  C 20.57142859375 21.857142890625  21.9285714453125 23.1428571484375  23 24.714285703125  C 23.1428571484375 24.92857140625  23.3571428515625 25  23.5714285546875 25  C 23.714285703125 25  23.8571428515625 24.9285714453125  24 24.8571428515625  Z " fill-rule="nonzero" fill="#1a1a1a" stroke="none" transform="matrix(1 0 0 1 819 1807 )" />
  </g>
</svg>