<?xml version="1.0" encoding="utf-8"?>
<svg version="1.1" width="166px" height="30px" xmlns:xlink="http://www.w3.org/1999/xlink" xmlns="http://www.w3.org/2000/svg">
  <g transform="translate(-267 -1073 )">
    <path d="M 268 1088  a 14 14 0 0 1 282 1074L 418 1074  a 14 14 0 0 1 432 1088a 14 14 0 0 1 418 1102L 282 1102  a 14 14 0 0 1 268 1088Z " fill-rule="nonzero" fill="#ffffff" stroke="none" />
    <path d="M 267.5 1088  a 14.5 14.5 0 0 1 282 1073.5L 418 1073.5  a 14.5 14.5 0 0 1 432.5 1088a 14.5 14.5 0 0 1 418 1102.5L 282 1102.5  a 14.5 14.5 0 0 1 267.5 1088Z " stroke-width="1" stroke="#000000" fill="none" stroke-opacity="0.0980392156862745" />
  </g>
</svg>