<?xml version="1.0" encoding="utf-8"?>
<svg version="1.1" xmlns:xlink="http://www.w3.org/1999/xlink" width="11px" height="11px" xmlns="http://www.w3.org/2000/svg">
  <g transform="matrix(1 0 0 1 -586 -515 )">
    <path d="M 9.84451754385965 5.45416666666667  C 9.84451754385965 3.05877192982456  7.89539473684211 1.10964912280702  5.5 1.10964912280702  C 3.10460526315789 1.10964912280702  1.15548245614035 3.05877192982456  1.15548245614035 5.45416666666667  C 1.15548245614035 7.84956140350877  3.10460526315789 9.79747807017544  5.5 9.79747807017544  C 7.89539473684211 9.79747807017544  9.84451754385965 7.84956140350877  9.84451754385965 5.45416666666667  Z M 10.9529605263158 5.45416666666667  C 10.9496368960587 8.464375839226  8.51020917255933 10.9038035627254  5.5 10.9071271929825  C 2.48979082744067 10.9038035627254  0.0503631039412603 8.464375839226  0.0470394736842109 5.45416666666667  C 0.0470394736842109 2.44605263157895  2.49309210526316 0  5.5 0  C 8.50690789473684 0  10.9529605263158 2.44605263157895  10.9529605263158 5.45416666666667  Z " fill-rule="nonzero" fill="#333434" stroke="none" transform="matrix(1 0 0 1 586 515 )" />
  </g>
</svg>