<?xml version="1.0" encoding="utf-8"?>
<svg version="1.1" xmlns:xlink="http://www.w3.org/1999/xlink" width="11px" height="11px" xmlns="http://www.w3.org/2000/svg">
  <g transform="matrix(1 0 0 1 -639 -1815 )">
    <path d="M 10.5 2.285714296875  C 10.5714285546875 1.9285714453125  10.4285714453125 1.5  10.1428571484375 1.214285703125  C 9.8571428515625 0.928571406250001  9.4285714453125 0.785714257812499  9 0.8571428515625  L 3.1428571484375 1.9285714453125  C 2.6428571484375 2  2.214285703125 2.4285714453125  2.0714285546875 3  L 0.9285714453125 8.8571428515625  C 0.857142890624999 9.285714296875  1 9.714285703125  1.285714296875 10  C 1.5 10.214285703125  1.8571428515625 10.3571428515625  2.214285703125 10.3571428515625  L 2.4285714453125 10.3571428515625  L 8.285714296875 9.214285703125  C 8.785714296875 9.1428571484375  9.2142857421875 8.71428570312501  9.3571428515625 8.1428571484375  L 10.5 2.285714296875  Z M 9.0714285546875 2.285714296875  L 8 7.9285714453125  L 2.3571428515625 9  L 3.4285714453125 3.3571428515625  L 9.0714285546875 2.285714296875  Z " fill-rule="nonzero" fill="#0081b9" stroke="none" transform="matrix(1 0 0 1 639 1815 )" />
  </g>
</svg>