<?xml version="1.0" encoding="utf-8"?>
<svg version="1.1" xmlns:xlink="http://www.w3.org/1999/xlink" width="31px" height="25px" xmlns="http://www.w3.org/2000/svg">
  <g transform="matrix(1 0 0 1 -535 -1807 )">
    <path d="M 30.5714285546875 9.5714285546875  C 30.7857142578125 9.2857142578125  30.642857109375 8.8571428515625  30.285714296875 8.6428571484375  L 17.1428571484375 1.0714285546875  C 16.285714296875 0.5714285546875  15.1428571484375 0.5714285546875  14.285714296875 1.0714285546875  L 1.1428571484375 8.6428571484375  C 0.785714296875 8.8571428515625  0.714285703124999 9.285714296875  0.8571428515625 9.6428571484375  C 1.0714285546875 10  1.5 10.07142859375  1.8571428515625 9.9285714453125  L 3.214285703125 9.1428571484375  L 3.214285703125 23.6428571484375  C 3.214285703125 24.07142859375  3.5 24.3571428515625  3.9285714453125 24.3571428515625  C 4.357142890625 24.3571428515625  4.6428571484375 24.0714285546875  5 23.6428571484375  L 5 8.285714296875  L 15 2.285714296875  C 15.4285714453125 2  16 2  16.4285714453125 2.285714296875  L 26.785714296875 8.285714296875  L 26.785714296875 21.5  C 26.785714296875 21.9285714453125  27.07142859375 22.214285703125  27.5 22.214285703125  C 27.92857140625 22.214285703125  28.214285703125 21.92857140625  28 21.5  L 28 9.0714285546875  L 29.5714285546875 9.8571428515625  C 29.714285703125 9.92857140625  29.7857142578125 9.92857140625  29.9285714453125 9.9285714453125  C 30.1428571484375 9.9285714453125  30.4285714453125 9.785714296875  30.5714285546875 9.5714285546875  Z M 28 23.214285703125  C 27.785714296875 23  27.285714296875 23  27 23.214285703125  C 26.8571428515625 23.3571428515625  26.785714296875 23.5  26.785714296875 23.714285703125  C 26.785714296875 23.92857140625  26.8571428515625 24.0714285546875  27 24.214285703125  C 27.1428571484375 24.3571428515625  27.285714296875 24.42857140625  27.5 24.4285714453125  C 27.714285703125 24.4285714453125  27.8571428515625 24.357142890625  28 24.214285703125  C 28.1428571484375 24.0714285546875  28.214285703125 23.92857140625  28.214285703125 23.714285703125  C 28.214285703125 23.5  28.1428571484375 23.3571428515625  28 23.214285703125  Z " fill-rule="nonzero" fill="#231815" stroke="none" transform="matrix(1 0 0 1 535 1807 )" />
  </g>
</svg>