<?xml version="1.0" encoding="utf-8"?>
<svg version="1.1" xmlns:xlink="http://www.w3.org/1999/xlink" width="16px" height="4px" xmlns="http://www.w3.org/2000/svg">
  <g transform="matrix(1 0 0 1 -543 -1821 )">
    <path d="M 15 1.6428571484375  C 15.214285703125 1.285714296875  15.0714285546875 0.8571428515625  14.785714296875 0.6428571484375  C 14.4285714453125 0.4285714453125  14 0.5  13.785714296875 0.8571428515625  C 13.4285714453125 1.3571428515625  11.3571428515625 2.214285703125  8 2.214285703125  C 4.6428571484375 2.214285703125  2.5714285546875 1.42857140625  2.214285703125 0.9285714453125  C 2 0.571428593749999  1.5714285546875 0.5  1.214285703125 0.714285703125  C 0.8571428515625 0.928571406250001  0.785714257812499 1.3571428515625  1 1.714285703125  C 2 3.1428571484375  5.3571428515625 3.6428571484375  8 3.6428571484375  C 10.6428571484375 3.6428571484375  14.0714285546875 3.1428571484375  15 1.6428571484375  Z " fill-rule="nonzero" fill="#231815" stroke="none" transform="matrix(1 0 0 1 543 1821 )" />
  </g>
</svg>