<?xml version="1.0" encoding="utf-8"?>
<svg version="1.1" xmlns:xlink="http://www.w3.org/1999/xlink" width="24px" height="26px" xmlns="http://www.w3.org/2000/svg">
  <g transform="matrix(1 0 0 1 -103 -2042 )">
    <path d="M 21.6428571484375 16.6428571554666  C 21.714285703125 17.142857155091  22 17.4285714517514  22.4285714453125 17.4285714517514  C 22.857142890625 17.4285714517514  23.1428571484375 17.142857155091  23.1428571484375 16.7142857101004  L 23.1428571484375 7.21428571723686  C 23.1428571484375 6.71428571761246  22.8571428515625 6.21428571798807  22.4285714453125 6.00000001502404  L 12.4285714453125 0.214285722495278  C 12 -0.0714285741650926  11.4285714453125 -0.0714285741650926  11 0.214285722495278  L 0.999999999999996 6.00000001502404  C 0.571428554687497 6.28571431168441  0.285714296874998 6.71428571761246  0.285714296874998 7.21428571723686  L 0.285714296874998 18.714285708598  C 0.285714296874998 19.2142857082224  0.571428593749998 19.7142857078468  0.999999999999996 19.9285714498734  L 11 25.7142857033396  C 11.214285703125 25.8571428516698  11.5 25.9285714063037  11.714285703125 25.9285714453662  C 11.92857140625 25.9285714844287  12.214285703125 25.8571428907323  12.4285714453125 25.7142857033396  L 18.5 22.2142857059688  C 18.8571428515625 22.0000000030048  18.9285714453125 21.5714285580143  18.785714296875 21.21428570672  C 18.57142859375 20.8571428554258  18.1428571484375 20.7857142617295  17.785714296875 20.9285714491222  L 11.714285703125 24.428571446493  L 2 18.6428571539642  L 2 7.14285716260302  L 11.6428571484375 1.35714287007426  L 21.6428571484375 7.14285716260302  L 21.6428571484375 16.6428571554666  Z " fill-rule="nonzero" fill="#1a1a1a" stroke="none" transform="matrix(1 0 0 1 103 2042 )" />
  </g>
</svg>