<?xml version="1.0" encoding="utf-8"?>
<svg version="1.1" width="7px" height="7px" xmlns:xlink="http://www.w3.org/1999/xlink" xmlns="http://www.w3.org/2000/svg">
  <g transform="translate(-534 -1110 )">
    <path d="M 3.93505859375 4.9609375  L 3.93505859375 6.19384765625  L 3.11474609375 6.19384765625  C 1.52294921875 6.19384765625  0.2265625 4.8974609375  0.2265625 3.3056640625  C 0.2265625 1.71142578125  1.52294921875 0.41748046875  3.11474609375 0.41748046875  C 3.771484375 0.41748046875  4.416015625 0.64453125  4.92626953125 1.0546875  L 6.57421875 2.50244140625  L 5.76123046875 3.427734375  L 4.1328125 1.99462890625  C 3.85693359375 1.7724609375  3.498046875 1.6455078125  3.11474609375 1.6455078125  C 2.20166015625 1.6455078125  1.45703125 2.39013671875  1.45703125 3.30322265625  C 1.45703125 4.21630859375  2.20166015625 4.9609375  3.11474609375 4.9609375  L 3.93505859375 4.9609375  Z " fill-rule="nonzero" fill="#000000" stroke="none" transform="matrix(1 0 0 1 534 1110 )" />
  </g>
</svg>