<?xml version="1.0" encoding="utf-8"?>
<svg version="1.1" width="12px" height="6px" xmlns:xlink="http://www.w3.org/1999/xlink" xmlns="http://www.w3.org/2000/svg">
  <g transform="translate(-397 -1817 )">
    <path d="M 5.785714296875 5.214285703125  C 8.1428571484375 5.214285703125  10.3571428515625 3.5714285546875  11.0714285546875 1.214285703125  C 11.214285703125 0.8571428515625  10.92857140625 0.428571406250001  10.5714285546875 0.3571428515625  C 10.214285703125 0.214285703125  9.7857142578125 0.5  9.714285703125 0.8571428515625  C 9.214285703125 2.5714285546875  7.5714285546875 3.785714296875  5.785714296875 3.785714296875  C 4.0000000390625 3.785714296875  2.3571428515625 2.57142859375  1.8571428515625 0.8571428515625  C 1.714285703125 0.5  1.3571428515625 0.285714296875  1 0.3571428515625  C 0.642857148437505 0.5  0.428571445312503 0.8571428515625  0.500000000000004 1.214285703125  C 1.214285703125 3.5714285546875  3.3571428515625 5.214285703125  5.785714296875 5.214285703125  Z " fill-rule="nonzero" fill="#1a1a1a" stroke="none" transform="matrix(1 0 0 1 397 1817 )" />
  </g>
</svg>