<?xml version="1.0" standalone="no"?><!DOCTYPE svg PUBLIC "-//W3C//DTD SVG 1.1//EN" "http://www.w3.org/Graphics/SVG/1.1/DTD/svg11.dtd"><svg t="1538821143246" class="icon" style="" viewBox="0 0 1024 1024" version="1.1" xmlns="http://www.w3.org/2000/svg" p-id="1726" xmlns:xlink="http://www.w3.org/1999/xlink" width="200" height="200"><defs><style type="text/css"></style></defs><path d="M416 267.392l-124.544 91.936H192v318.272h81.28l142.72 79.04V267.36z m-142.944 16.544l108.96-80.416c29.952-22.08 69.44-11.456 88.224 23.84 6.4 12 9.76 25.856 9.76 40v489.28c0 41.6-28.64 75.36-64 75.36-9.408 0-18.72-2.432-27.232-7.168l-129.792-71.84H192c-35.36 0-64-33.76-64-75.392V359.36c0-41.632 28.64-75.392 64-75.392h81.056z" fill="#636363" p-id="1727"></path><path d="M739.392 731.136l-19.648 12.768a32 32 0 0 1-44.288-9.408l-1.184-1.824a32 32 0 0 1 9.408-44.288l28.8-18.688a32.32 32.32 0 0 1 3.648-2.048 198.336 198.336 0 0 0 88.384-165.184 198.336 198.336 0 0 0-90.88-166.816 32.448 32.448 0 0 1-2.176-1.12l-30.016-16.64a32 32 0 0 1-12.48-43.52l1.056-1.888a32 32 0 0 1 43.52-12.48l5.312 2.976a264.704 264.704 0 0 1 20.544 468.16z" fill="#636363" p-id="1728"></path><path d="M578.816 612.672a128.128 128.128 0 0 0 0-221.792v221.792z m34.88 53.76l-20.096 13.056a32 32 0 0 1-34.848-53.696l20.064-13.024v-221.76l-19.296-11.584a32 32 0 1 1 32.96-54.848l14.304 8.608a191.264 191.264 0 0 1 15.2 9.216 192.064 192.064 0 0 1-8.256 324z" fill="#636363" p-id="1729"></path></svg>