<?xml version="1.0" encoding="utf-8"?>
<svg version="1.1" width="20px" height="20px" xmlns:xlink="http://www.w3.org/1999/xlink" xmlns="http://www.w3.org/2000/svg">
  <g transform="translate(-776 -1103 )">
    <path d="M 18.9553571468099 8.83630951985677  C 19.3095238134766 8.53273807942708  19.4107142936198 8.12797618652344  19.2589285595703 7.77380951985677  C 19.1577380794271 7.36904762695313  18.8035714127604 7.11607141276042  18.3988095198568 7.06547618652344  L 13.0357142936198 6.25595237304688  L 10.6577381070964 1.39880951985677  C 10.4553571468099 1.0446428531901  10.1011904801432 0.791666666666666  9.69642855957031 0.791666666666666  C 9.29166663899739 0.791666666666666  8.98809522623698 1.0446428531901  8.78571429361979 1.39880951985677  L 6.86309522623698 5.34523810709636  C 6.76190474609375 5.59821429361979  6.86309522623698 5.90178573404948  7.11607144042969 6.00297618652344  C 7.36904762695312 6.10416666666667  7.67261906738281 6.00297618652344  7.77380951985677 5.75  L 9.69642855957031 1.80357144042969  L 9.74702381347656 1.80357144042969  L 12.125 6.61011903971354  C 12.2767857063802 6.91369048014323  12.5803571468099 7.11607141276042  12.9345238134766 7.16666666666667  L 18.2470238134766 7.92559522623698  L 18.2976190397135 7.4196428531901  L 18.2470238134766 7.97619048014323  L 14.4017857063802 11.7202381070964  C 14.1488095198568 11.9732142936198  14.0476190397135 12.3273809602865  14.0982142936198 12.6309523730469  L 15.0595238134766 18.0952381070964  L 15.5654761865234 17.9940476269531  L 15.0089285595703 18.0952381070964  L 10.2529761865234 15.5654761865234  C 9.94940474609375 15.4136904801432  9.59523807942708 15.4136904801432  9.29166666666667 15.5654761865234  L 4.53571429361979 18.0952381070964  L 4.48511903971354 18.0446428531901  L 5.39583333333333 12.7321428531901  C 5.44642855957031 12.3779761865234  5.34523810709635 12.0238095198568  5.09226189290364 11.8214285595703  L 1.24702381347656 8.07738096028646  L 0.842261892903643 8.4821428531901  L 1.19642855957031 8.07738096028646  L 3.92857144042968 7.67261903971354  C 4.18154762695312 7.62202381347656  4.38392858723958 7.36904759928385  4.33333333333333 7.11607144042969  C 4.28273810709635 6.86309525390625  4.02976189290364 6.66071429361979  3.77678570638021 6.71130951985677  L 1.0446428531901 7.11607144042969  C 0.639880960286456 7.16666666666667  0.336309519856769 7.47023810709635  0.18452381347656 7.82440477376302  C 0.0833333333333316 8.22916666666667  0.18452381347656 8.63392858723958  0.437499999999998 8.88690477376302  L 4.28273810709635 12.6815476269531  L 3.42261903971354 17.9434523730469  C 3.37202381347656 18.3482142659505  3.52380951985677 18.7529761865234  3.82738096028646 18.9553571468099  C 4.02976192057292 19.1071428531901  4.23214285319011 19.1577381070964  4.43452381347656 19.1577381070964  C 4.58630951985677 19.1577381070964  4.78869048014323 19.1071428808594  4.94047618652344 19.0565476269531  L 9.74702381347656 16.5267857063802  L 14.5029761865234 19.0565476269531  C 14.8571428531901 19.2589285872396  15.2619047460937 19.2083333333333  15.6160714404297 18.9553571468099  C 15.9196428808594 18.7023809602865  16.1220238134766 18.3482142936198  16.0208333333333 17.9434523730469  L 15.1101190397135 12.5803571468099  L 18.9553571468099 8.83630951985677  Z " fill-rule="nonzero" fill="#1a1a1a" stroke="none" transform="matrix(1 0 0 1 776 1103 )" />
  </g>
</svg>