<?xml version="1.0" encoding="utf-8"?>
<svg version="1.1" width="19px" height="11px" xmlns:xlink="http://www.w3.org/1999/xlink" xmlns="http://www.w3.org/2000/svg">
  <g transform="translate(-583 -525 )">
    <path d="M 5.472 2.435  L 4.95128571428571 1.37  C 2.47757142857143 2.51375  0.0514285714285714 5.865  0.0514285714285714 8.1375  C 0.0514285714285714 9.12875  0.973285714285715 10  2.02371428571429 10  L 15.9505714285714 10  C 17.0022857142857 10  17.9241428571429 9.12875  17.9241428571429 8.1375  C 17.9241428571429 7.51625  17.7312857142857 6.8275  17.4175714285714 6.125  L 17.4291428571429 6.11875  C 17.4021428571429 6.07  17.3725714285714 6.02875  17.3442857142857 5.98  C 16.5265714285714 4.24375  14.9374285714286 2.4775  13.2762857142857 1.525  C 12.5953810252698 1.06669190054194  11.880740606466 0.657672826072937  11.1381428571429 0.301249999999999  C 10.9941428571429 0.2325  10.8874285714286 0.183750000000001  10.8308571428571 0.147500000000001  L 10.4734285714286 0.55  L 10.3294285714286 0  L 9.86014285714286 0.513749999999999  C 9.81257142857143 0.946249999999999  10.1455714285714 1.10875  10.6045714285714 1.335  C 11.5521428571429 1.79625  13.8561428571429 2.93125  15.6047142857143 5.4025  C 15.6625714285714 5.48875  15.7191428571429 5.57375  15.7731428571429 5.66  C 15.8592857142857 5.7875  15.9364285714286 5.9275  16.0187142857143 6.0625  C 16.4442857142857 6.81875  16.7104285714286 7.5525  16.7104285714286 8.1375  C 16.7104285714286 8.48125  16.335 8.82  15.9505714285714 8.82  L 2.02371428571429 8.82  C 1.64057142857143 8.82  1.26385714285714 8.48124999999999  1.26385714285714 8.1375  C 1.26385714285714 6.48125  3.24514285714286 3.465  5.472 2.435  Z " fill-rule="nonzero" fill="#333333" stroke="none" transform="matrix(1 0 0 1 583 525 )" />
  </g>
</svg>