<?xml version="1.0" encoding="utf-8"?>
<svg version="1.1" width="351px" height="47px" xmlns:xlink="http://www.w3.org/1999/xlink" xmlns="http://www.w3.org/2000/svg">
  <g transform="translate(-948 -1349 )">
    <path d="M 349.190476190476 15.3333333333335  L 0.947493091196179 31.7647058823529  L 14.7651006711409 38.627450980392  L 21.6739044611132 31.7647058823529  L 37.4654559810501 39  L 54.243979470983 31.7647058823529  L 64.0714285714286 31  L 69.0485590209238 39  L 76.9443347808924 31  L 82.8661666008684 31.7647058823529  L 92.735886300829 38.627450980392  L 104.579549940782 39  L 119.384129490722 45.4901960784314  L 130.240821160679 39  L 155.902092380576 31.7647058823529  L 170.706671930517 31  L 179.194630872483 20.0000000000002  L 189.261744966443 31  L 196.011615161247 31  L 198.341887090407 20.0000000000002  L 207.224634820371 39  L 214.133438610344 45.4901960784314  L 219.463087248322 46  L 227.951046190288 39  L 252.625345440189 31  L 265.568663753076 16.2703161756112  L 279.865771812081 0  L 285.234899328859 15.3333333333335  L 295.973154362416 10.0000000000002  L 300 20.0000000000002  L 311.095238095238 24.2619047619048  L 322.404761904762 20.0000000000002  L 334.309523809524 24.2619047619048  L 349.190476190476 16.2703161756112  L 349.190476190476 15.3333333333335  Z " fill-rule="nonzero" fill="#ffffff" stroke="none" transform="matrix(1 0 0 1 948 1349 )" />
    <path d="M 0.947493091196179 31.7647058823529  L 14.7651006711409 38.627450980392  L 21.6739044611132 31.7647058823529  L 37.4654559810501 39  L 54.243979470983 31.7647058823529  L 64.0714285714286 31  L 69.0485590209238 39  L 76.9443347808924 31  L 82.8661666008684 31.7647058823529  L 92.735886300829 38.627450980392  L 104.579549940782 39  L 119.384129490722 45.4901960784314  L 130.240821160679 39  L 155.902092380576 31.7647058823529  L 170.706671930517 31  L 179.194630872483 20.0000000000002  L 189.261744966443 31  L 196.011615161247 31  L 198.341887090407 20.0000000000002  L 207.224634820371 39  L 214.133438610344 45.4901960784314  L 219.463087248322 46  L 227.951046190288 39  L 252.625345440189 31  L 265.568663753076 16.2703161756112  L 279.865771812081 0  L 285.234899328859 15.3333333333335  L 295.973154362416 10.0000000000002  L 300 20.0000000000002  L 311.095238095238 24.2619047619048  L 322.404761904762 20.0000000000002  L 334.309523809524 24.2619047619048  L 349.190476190476 16.2703161756112  L 349.190476190476 15.3333333333335  " stroke-width="1" stroke="#005579" fill="none" transform="matrix(1 0 0 1 948 1349 )" />
  </g>
</svg>