<?xml version="1.0" encoding="utf-8"?>
<svg version="1.1" width="13px" height="18px" xmlns:xlink="http://www.w3.org/1999/xlink" xmlns="http://www.w3.org/2000/svg">
  <g transform="translate(-832 -1103 )">
    <path d="M 7.32793140842912 17.4512080394089  C 7.33033039489145 17.6742341674877  7.51265294099617 17.8569257931035  7.73815713716475 17.8569257931035  L 12.4473564587484 17.8569257931035  C 12.6752596413793 17.8569257931035  12.857582187484 17.6766067914614  12.857582187484 17.4512080394089  L 12.857582187484 0.688659152709359  C 12.857582187484 0.465633024630543  12.6752596413793 0.282941399014776  12.4473564587484 0.282941399014776  L 7.73815713716475 0.282941399014776  C 7.51265294099617 0.282941399014776  7.32793140842912 0.463260400656813  7.32793140842912 0.688659152709359  L 7.32793140842912 17.4512080394089  Z M 8 17.0454902857143  L 8 1.09437688013137  L 12 1.09437688013137  L 12 17.0454902857143  L 8 17.0454902857143  Z M 0.267730879182632 17.4512080394089  C 0.267730879182632 17.6742341674877  0.450053425287354 17.8569257931035  0.677956607918265 17.8569257931035  L 5.38715592950192 17.8569257931035  C 5.6126601256705 17.8569257931035  5.79738165823755 17.6766067914614  6 17.4512080394089  L 6 7.20624183908046  C 5.79738165823755 6.98321571100164  5.6126601256705 6.80052408538588  5.38715592950192 6.80052411165846  L 0.677956607918265 6.80052411165846  C 0.45245241174968 6.80052411165846  0.267730879182632 6.98084311330049  0.267730879182632 7.20624183908046  L 0.267730879182632 17.4512080394089  Z M 1.0881823100894 17.0454902857143  L 1.0881823100894 7.61195959277504  L 4.97693022733078 7.61195959277504  L 4.97693022733078 17.0454902857143  L 1.0881823100894 17.0454902857143  Z " fill-rule="nonzero" fill="#151501" stroke="none" transform="matrix(1 0 0 1 832 1103 )" />
  </g>
</svg>