<?xml version="1.0" encoding="utf-8"?>
<svg version="1.1" width="9px" height="9px" xmlns:xlink="http://www.w3.org/1999/xlink" xmlns="http://www.w3.org/2000/svg">
  <g transform="translate(-537 -1108 )">
    <path d="M 7.20703125 6.853515625  C 6.50390625 7.7080078125  5.46142578125 8.19384765625  4.35546875 8.19384765625  C 3.70849609375 8.19384765625  3.10546875 8.04248046875  2.61474609375 7.75927734375  C 2.5341796875 7.70556640625  1.26220703125 6.8681640625  0.0732421875 5.6962890625  L 0.9375 4.8173828125  C 2.03857421875 5.9013671875  3.251953125 6.7021484375  3.26416015625 6.7119140625  C 3.5400390625 6.87060546875  3.92822265625 6.96337890625  4.35791015625 6.96337890625  C 5.09521484375 6.96337890625  5.7861328125 6.63623046875  6.2548828125 6.0673828125  C 6.73095703125 5.48876953125  6.9140625 4.75634765625  6.767578125 4.00439453125  C 6.57958984375 3.03759765625  5.76904296875 2.24658203125  4.794921875 2.0830078125  C 4.06005859375 1.95849609375  3.3544921875 2.146484375  2.79541015625 2.60546875  L 2.01171875 1.658203125  C 2.8369140625 0.974609375  3.92822265625 0.68896484375  5.00244140625 0.86962890625  C 6.494140625 1.12353515625  7.6904296875 2.29052734375  7.978515625 3.7724609375  C 8.193359375 4.8759765625  7.91015625 5.9990234375  7.20703125 6.853515625  Z " fill-rule="nonzero" fill="#000000" stroke="none" transform="matrix(1 0 0 1 537 1108 )" />
  </g>
</svg>